# xmcd
#
# Track frame offsets: 
#        150
#        29569
#        68008
#        86355
#        109790
#        137857
#        188037
#
# Disc length: 2929 seconds
#
# Revision: 1
# Processed by: cddbd v1.5.2PL0 Copyright (c) Steve Scherf et al.
# Submitted via: ExactAudioCopy v0.99pb4
#
DISCID=590b6f07
DTITLE=Anders Lønne Grønseth and David Skinner - Phantasmagoria
DYEAR=2006
DGENRE=Jazz
TTITLE0=Prime
TTITLE1=Varsha
TTITLE2=Iyi Geceler
TTITLE3=Parachute
TTITLE4=Uvular Undulation
TTITLE5=Circumscription
TTITLE6=Chime
EXTD=YEAR: 2006
EXTT0=
EXTT1=
EXTT2=
EXTT3=
EXTT4=
EXTT5=
EXTT6=
PLAYORDER=
